<mxfile host="app.diagrams.net" modified="2023-08-14T01:49:17.680Z" agent="Mozilla/5.0 (Windows NT 10.0; Win64; x64) AppleWebKit/537.36 (KHTML, like Gecko) Chrome/115.0.0.0 Safari/537.36" etag="7dpRiR_K2F1u5hsY5ZFu" version="21.6.7" type="github">
  <diagram name="第 1 页" id="GIDFDQQ-i0uCsXtVJIqb">
    <mxGraphModel dx="1434" dy="758" grid="1" gridSize="10" guides="1" tooltips="1" connect="1" arrows="1" fold="1" page="1" pageScale="1" pageWidth="4681" pageHeight="3300" math="0" shadow="0">
      <root>
        <mxCell id="0" />
        <mxCell id="1" parent="0" />
        <mxCell id="laQibWiwvQj4CBXzZVvx-1" value="开局&lt;br&gt;加入房间（重连）" style="rounded=1;whiteSpace=wrap;html=1;" vertex="1" parent="1">
          <mxGeometry x="360" y="430" width="170" height="60" as="geometry" />
        </mxCell>
        <mxCell id="laQibWiwvQj4CBXzZVvx-3" value="hostingGame" style="text;html=1;align=center;verticalAlign=middle;resizable=0;points=[];autosize=1;strokeColor=none;fillColor=none;" vertex="1" parent="1">
          <mxGeometry x="225" y="430" width="90" height="30" as="geometry" />
        </mxCell>
        <mxCell id="laQibWiwvQj4CBXzZVvx-4" value="responseJoinRoom" style="text;html=1;align=center;verticalAlign=middle;resizable=0;points=[];autosize=1;strokeColor=none;fillColor=none;" vertex="1" parent="1">
          <mxGeometry x="205" y="460" width="130" height="30" as="geometry" />
        </mxCell>
        <mxCell id="laQibWiwvQj4CBXzZVvx-6" value="通知加入房间&lt;br&gt;notifyJoinRoomResponse" style="whiteSpace=wrap;html=1;" vertex="1" parent="1">
          <mxGeometry x="355" y="520" width="180" height="50" as="geometry" />
        </mxCell>
        <mxCell id="laQibWiwvQj4CBXzZVvx-7" value="构建当前房间真人&lt;br&gt;buildCurrentRoomPlayer" style="whiteSpace=wrap;html=1;" vertex="1" parent="1">
          <mxGeometry x="370" y="600" width="150" height="50" as="geometry" />
        </mxCell>
        <mxCell id="laQibWiwvQj4CBXzZVvx-8" value="构建房间机器人" style="whiteSpace=wrap;html=1;" vertex="1" parent="1">
          <mxGeometry x="370" y="680" width="150" height="50" as="geometry" />
        </mxCell>
        <mxCell id="laQibWiwvQj4CBXzZVvx-9" value="通知客户端&lt;br&gt;callbackPreparePveGame&lt;br&gt;callbackStartGame" style="whiteSpace=wrap;html=1;" vertex="1" parent="1">
          <mxGeometry x="355" y="760" width="180" height="50" as="geometry" />
        </mxCell>
        <mxCell id="laQibWiwvQj4CBXzZVvx-10" value="构建房间机器人" style="whiteSpace=wrap;html=1;" vertex="1" parent="1">
          <mxGeometry x="840" y="420" width="150" height="50" as="geometry" />
        </mxCell>
        <mxCell id="laQibWiwvQj4CBXzZVvx-12" value="" style="rounded=0;whiteSpace=wrap;html=1;" vertex="1" parent="1">
          <mxGeometry x="870" y="540" width="120" height="60" as="geometry" />
        </mxCell>
        <mxCell id="laQibWiwvQj4CBXzZVvx-13" value="" style="rounded=1;whiteSpace=wrap;html=1;" vertex="1" parent="1">
          <mxGeometry x="1140" y="400" width="180" height="120" as="geometry" />
        </mxCell>
        <mxCell id="laQibWiwvQj4CBXzZVvx-14" value="ChannelRoom" style="text;html=1;align=center;verticalAlign=middle;resizable=0;points=[];autosize=1;strokeColor=none;fillColor=none;" vertex="1" parent="1">
          <mxGeometry x="1180" y="400" width="100" height="30" as="geometry" />
        </mxCell>
        <mxCell id="laQibWiwvQj4CBXzZVvx-17" value="userMap：真实玩家信息&lt;br&gt;aiUserMap: AI玩家信息&lt;br&gt;supplyAiUserMap: 局内补位AI" style="text;html=1;align=center;verticalAlign=middle;resizable=0;points=[];autosize=1;strokeColor=none;fillColor=none;" vertex="1" parent="1">
          <mxGeometry x="1140" y="445" width="180" height="60" as="geometry" />
        </mxCell>
      </root>
    </mxGraphModel>
  </diagram>
</mxfile>
